<svg data-v-423bf9ae="" xmlns="http://www.w3.org/2000/svg" viewBox="0 0 876 91" class="iconLeft"><!----><!----><!----><g data-v-423bf9ae="" id="1b46a5d2-873a-4a04-b433-758ad767c5ab" fill="white" transform="matrix(13.577733526672345,0,0,13.577733526672345,109.9259852529591,-57.58482205353377)"><path d="M2.73 6.86L2.73 6.86L2.73 6.86Q2.71 6.90 2.70 6.96L2.70 6.96L2.70 6.96Q2.69 7.01 2.67 7.05L2.67 7.05L2.67 7.05Q2.63 7.19 2.69 7.27L2.69 7.27L2.69 7.27Q2.71 7.30 2.84 7.37L2.84 7.37L2.84 7.37Q2.90 7.41 2.99 7.53L2.99 7.53L2.99 7.53Q3.34 7.97 3.21 8.71L3.21 8.71L3.21 8.71Q3.14 9.13 2.81 9.42L2.81 9.42L2.81 9.42Q2.57 9.64 2.45 9.66L2.45 9.66L2.45 9.66Q2.39 9.67 2.29 9.68L2.29 9.68L2.29 9.68Q2.18 9.69 2.02 9.69L2.02 9.69L2.02 9.69Q1.77 9.70 1.52 9.71L1.52 9.71L1.52 9.71Q1.27 9.71 1.03 9.71L1.03 9.71L1.03 9.71Q0.82 9.71 0.67 9.71L0.67 9.71L0.67 9.71Q0.51 9.71 0.41 9.70L0.41 9.70L0.41 9.70Q0.36 9.70 0.24 9.69L0.24 9.69L0.24 9.69Q0.13 9.67 0.09 9.65L0.09 9.65L0.07 9.60L0.07 9.60Q0.05 9.58 0.05 9.55L0.05 9.55L0.05 9.55Q0.04 9.52 0.03 9.50L0.03 9.50L0.03 9.50Q0.02 9.43 0.02 9.32L0.02 9.32L0.02 8.96L0.02 8.39L0.02 8.39Q0.02 8.24 0.01 8.10L0.01 8.10L0.01 8.10Q0 7.96 0 7.81L0 7.81L0 7.81Q0.01 7.49 0.02 7.18L0.02 7.18L0.02 7.18Q0.02 6.87 0.01 6.54L0.01 6.54L0.01 6.54Q0.01 6.36 0.02 6.17L0.02 6.17L0.02 6.17Q0.03 5.97 0.05 5.79L0.05 5.79L0.05 5.79Q0.05 5.73 0.05 5.65L0.05 5.65L0.05 5.65Q0.05 5.58 0.06 5.50L0.06 5.50L0.06 5.50Q0.09 5.46 0.10 5.46L0.10 5.46L0.10 5.46Q0.16 5.41 0.28 5.41L0.28 5.41L0.28 5.41Q0.40 5.41 0.49 5.41L0.49 5.41L0.49 5.41Q0.57 5.41 0.67 5.42L0.67 5.42L0.67 5.42Q0.76 5.43 0.85 5.43L0.85 5.43L0.85 5.43Q1.03 5.43 1.23 5.44L1.23 5.44L1.23 5.44Q1.43 5.46 1.65 5.48L1.65 5.48L1.65 5.48Q2.08 5.52 2.39 5.75L2.39 5.75L2.39 5.75Q2.73 6.02 2.75 6.60L2.75 6.60L2.75 6.60Q2.75 6.69 2.73 6.86ZM0.46 8.01L0.46 8.54L0.46 8.54Q0.46 8.63 0.46 8.72L0.46 8.72L0.46 8.72Q0.46 8.81 0.47 8.90L0.47 8.90L0.47 8.90Q0.48 9.15 0.56 9.20L0.56 9.20L0.56 9.20Q0.58 9.21 0.64 9.24L0.64 9.24L0.64 9.24Q0.70 9.26 0.80 9.27L0.80 9.27L0.80 9.27Q0.87 9.28 0.94 9.28L0.94 9.28L0.94 9.28Q1.01 9.28 1.09 9.29L1.09 9.29L1.09 9.29Q1.16 9.29 1.26 9.30L1.26 9.30L1.26 9.30Q1.37 9.32 1.51 9.32L1.51 9.32L1.51 9.32Q1.70 9.32 1.89 9.30L1.89 9.30L1.89 9.30Q2.08 9.27 2.28 9.21L2.28 9.21L2.28 9.21Q2.67 9.11 2.78 8.67L2.78 8.67L2.78 8.66L2.78 8.66Q2.80 8.57 2.81 8.46L2.81 8.46L2.81 8.46Q2.82 8.35 2.81 8.24L2.81 8.24L2.81 8.24Q2.80 8.13 2.76 8.03L2.76 8.03L2.76 8.03Q2.73 7.93 2.67 7.85L2.67 7.85L2.66 7.84L2.66 7.84Q2.56 7.74 2.43 7.68L2.43 7.68L2.43 7.68Q2.30 7.62 2.15 7.60L2.15 7.60L2.15 7.60Q2.01 7.57 1.86 7.57L1.86 7.57L1.86 7.57Q1.72 7.57 1.59 7.57L1.59 7.57L1.59 7.57Q1.49 7.59 1.39 7.59L1.39 7.59L1.39 7.59Q1.30 7.60 1.21 7.61L1.21 7.61L1.21 7.61Q1.11 7.62 1.04 7.62L1.04 7.62L1.04 7.62Q0.96 7.62 0.90 7.62L0.90 7.62L0.90 7.62Q0.65 7.62 0.57 7.69L0.57 7.69L0.57 7.69Q0.46 7.79 0.46 8.01L0.46 8.01ZM2.26 6.46L2.25 6.43L2.25 6.42L2.25 6.42Q2.19 6.23 2.10 6.12L2.10 6.12L2.10 6.12Q2.00 6.01 1.88 5.94L1.88 5.94L1.88 5.94Q1.76 5.88 1.61 5.86L1.61 5.86L1.61 5.86Q1.46 5.84 1.27 5.84L1.27 5.84L1.27 5.84Q1.06 5.84 0.85 5.86L0.85 5.86L0.85 5.86Q0.57 5.89 0.49 6.04L0.49 6.04L0.49 6.04Q0.44 6.14 0.46 6.27L0.46 6.27L0.46 6.27Q0.49 6.39 0.49 6.50L0.49 6.50L0.49 6.50Q0.50 6.56 0.50 6.64L0.50 6.64L0.50 6.64Q0.49 6.73 0.48 6.83L0.48 6.83L0.48 6.83Q0.46 7.03 0.53 7.12L0.53 7.12L0.53 7.12Q0.57 7.18 0.64 7.22L0.64 7.22L0.64 7.22Q0.71 7.25 0.79 7.26L0.79 7.26L0.79 7.26Q0.88 7.27 0.96 7.27L0.96 7.27L0.96 7.27Q1.04 7.27 1.10 7.27L1.10 7.27L1.10 7.27Q1.23 7.27 1.37 7.27L1.37 7.27L1.37 7.27Q1.52 7.26 1.69 7.24L1.69 7.24L1.69 7.24Q2.04 7.18 2.19 6.96L2.19 6.96L2.19 6.96Q2.26 6.87 2.27 6.76L2.27 6.76L2.27 6.76Q2.28 6.65 2.27 6.52L2.27 6.52L2.26 6.46ZM8.93 9.47L8.93 9.47L8.93 9.47Q8.93 9.65 8.78 9.69L8.78 9.69L8.78 9.69Q8.66 9.75 8.57 9.61L8.57 9.61L8.57 9.61Q8.52 9.54 8.49 9.49L8.49 9.49L8.49 9.49Q8.46 9.43 8.44 9.39L8.44 9.39L8.44 9.39Q8.34 9.18 8.26 9.03L8.26 9.03L8.26 9.03Q8.19 8.87 8.11 8.78L8.11 8.78L8.11 8.78Q7.95 8.55 7.75 8.49L7.75 8.49L7.75 8.49Q7.58 8.44 7.21 8.48L7.21 8.48L7.21 8.48Q6.99 8.50 6.79 8.51L6.79 8.51L6.79 8.51Q6.60 8.52 6.42 8.50L6.42 8.50L6.42 8.50Q6.02 8.48 5.83 8.76L5.83 8.76L5.82 8.78L5.81 8.79L5.81 8.79Q5.74 8.93 5.70 9.06L5.70 9.06L5.70 9.06Q5.65 9.19 5.59 9.32L5.59 9.32L5.45 9.54L5.45 9.54Q5.35 9.69 5.25 9.70L5.25 9.70L5.25 9.70Q5.20 9.72 5.11 9.65L5.11 9.65L5.11 9.65Q5.07 9.60 5.06 9.55L5.06 9.55L5.06 9.55Q5.05 9.49 5.06 9.43L5.06 9.43L5.06 9.43Q5.07 9.37 5.10 9.30L5.10 9.30L5.10 9.30Q5.12 9.24 5.14 9.19L5.14 9.19L5.30 8.85L5.30 8.85Q5.54 8.35 5.75 7.85L5.75 7.85L5.75 7.85Q5.96 7.34 6.19 6.83L6.19 6.83L6.19 6.83Q6.23 6.74 6.27 6.66L6.27 6.66L6.27 6.66Q6.30 6.58 6.33 6.51L6.33 6.51L6.33 6.51Q6.41 6.32 6.48 6.14L6.48 6.14L6.48 6.14Q6.56 5.95 6.65 5.76L6.65 5.76L6.75 5.61L6.75 5.61Q6.83 5.48 6.90 5.48L6.90 5.48L6.90 5.48Q6.97 5.46 7.08 5.59L7.08 5.59L7.08 5.59Q7.19 5.73 7.30 5.91L7.30 5.91L7.30 5.91Q7.40 6.10 7.48 6.26L7.48 6.26L7.48 6.26Q7.72 6.77 7.93 7.28L7.93 7.28L7.93 7.28Q8.13 7.79 8.37 8.28L8.37 8.28L8.37 8.28Q8.45 8.43 8.52 8.58L8.52 8.58L8.52 8.58Q8.59 8.74 8.67 8.88L8.67 8.88L8.67 8.88Q8.72 8.98 8.76 9.08L8.76 9.08L8.76 9.08Q8.80 9.17 8.85 9.27L8.85 9.27L8.85 9.27Q8.88 9.34 8.90 9.39L8.90 9.39L8.90 9.39Q8.92 9.44 8.93 9.47ZM7.57 7.56L7.57 7.56L7.57 7.56Q7.51 7.40 7.44 7.22L7.44 7.22L7.44 7.22Q7.38 7.05 7.29 6.88L7.29 6.88L7.29 6.88Q7.12 6.57 6.92 6.58L6.92 6.58L6.92 6.58Q6.85 6.58 6.79 6.62L6.79 6.62L6.79 6.62Q6.73 6.67 6.69 6.72L6.69 6.72L6.69 6.72Q6.65 6.78 6.62 6.85L6.62 6.85L6.62 6.85Q6.58 6.92 6.56 6.98L6.56 6.98L6.56 6.98Q6.49 7.18 6.42 7.40L6.42 7.40L6.42 7.40Q6.35 7.62 6.29 7.83L6.29 7.83L6.29 7.83Q6.24 7.98 6.30 8.05L6.30 8.05L6.30 8.05Q6.34 8.12 6.51 8.13L6.51 8.13L6.51 8.13Q6.67 8.14 6.78 8.15L6.78 8.15L6.78 8.15Q6.90 8.15 6.97 8.14L6.97 8.14L6.97 8.14Q7.12 8.14 7.37 8.10L7.37 8.10L7.37 8.10Q7.62 8.06 7.67 7.88L7.67 7.88L7.67 7.88Q7.69 7.77 7.64 7.69L7.64 7.69L7.64 7.69Q7.63 7.66 7.60 7.63L7.60 7.63L7.60 7.63Q7.58 7.59 7.57 7.56ZM10.86 9.70L10.86 9.70L10.86 9.70Q10.64 9.67 10.64 9.44L10.64 9.44L10.64 9.44Q10.63 9.07 10.63 8.72L10.63 8.72L10.63 8.72Q10.63 8.36 10.63 7.99L10.63 7.99L10.63 7.99Q10.63 7.79 10.65 7.58L10.65 7.58L10.65 7.58Q10.66 7.43 10.66 7.30L10.66 7.30L10.66 7.30Q10.66 7.17 10.66 7.06L10.66 7.06L10.66 7.06Q10.65 6.99 10.64 6.90L10.64 6.90L10.64 6.90Q10.64 6.80 10.63 6.67L10.63 6.67L10.63 6.67Q10.63 6.60 10.63 6.51L10.63 6.51L10.63 6.51Q10.64 6.41 10.64 6.28L10.64 6.28L10.64 6.28Q10.65 6.19 10.65 6.11L10.65 6.11L10.65 6.11Q10.66 6.04 10.66 5.99L10.66 5.99L10.66 5.84L10.66 5.83L10.66 5.78L10.66 5.78Q10.64 5.61 10.66 5.54L10.66 5.54L10.66 5.54Q10.68 5.49 10.75 5.44L10.75 5.44L10.75 5.44Q11.02 5.30 11.08 5.61L11.08 5.61L11.08 5.61Q11.14 5.84 11.15 6.07L11.15 6.07L11.15 6.07Q11.16 6.29 11.14 6.51L11.14 6.51L11.14 6.51L11.14 6.51Q11.12 6.73 11.13 6.94L11.13 6.94L11.13 6.94Q11.14 7.15 11.12 7.36L11.12 7.36L11.12 7.36Q11.09 7.55 11.08 7.68L11.08 7.68L11.08 7.68Q11.07 7.82 11.06 7.92L11.06 7.92L11.06 7.92Q11.05 8.05 11.05 8.20L11.05 8.20L11.05 8.20Q11.05 8.35 11.05 8.51L11.05 8.51L11.05 8.51Q11.06 8.54 11.06 8.59L11.06 8.59L11.06 8.59Q11.06 8.63 11.06 8.70L11.06 8.70L11.06 8.70Q11.06 8.80 11.06 8.91L11.06 8.91L11.06 8.91Q11.06 9.02 11.07 9.13L11.07 9.13L11.07 9.13Q11.07 9.20 11.07 9.27L11.07 9.27L11.07 9.27Q11.07 9.33 11.07 9.40L11.07 9.40L11.07 9.40Q11.07 9.54 11.06 9.55L11.06 9.55L11.06 9.55Q11.03 9.68 10.86 9.70ZM15.64 9.34L15.64 9.34L15.64 9.34Q15.72 9.40 15.72 9.50L15.72 9.50L15.72 9.50Q15.73 9.72 15.46 9.72L15.46 9.72L15.46 9.72Q14.96 9.72 14.47 9.71L14.47 9.71L14.47 9.71Q13.98 9.69 13.49 9.73L13.49 9.73L13.49 9.73Q13.10 9.75 13.02 9.52L13.02 9.52L13.02 9.52Q12.97 9.41 12.97 9.19L12.97 9.19L12.97 9.19Q12.98 9.08 12.98 8.99L12.98 8.99L12.98 8.99Q12.99 8.91 12.99 8.85L12.99 8.85L12.99 8.85Q13.00 8.70 13.01 8.53L13.01 8.53L13.01 8.53Q13.02 8.37 13.01 8.22L13.01 8.22L13.01 8.22Q13.00 7.89 12.98 7.58L12.98 7.58L12.98 7.58Q12.97 7.27 12.97 6.94L12.97 6.94L12.97 6.94Q12.98 6.78 12.99 6.63L12.99 6.63L12.99 6.63Q13.00 6.47 13.00 6.31L13.00 6.31L13.00 6.31Q13.00 6.11 13.00 5.94L13.00 5.94L13.00 5.94Q13.00 5.78 12.98 5.64L12.98 5.64L12.98 5.64Q12.97 5.46 13.15 5.42L13.15 5.42L13.15 5.42Q13.42 5.37 13.44 5.74L13.44 5.74L13.44 5.74Q13.45 5.89 13.46 6.04L13.46 6.04L13.46 6.04Q13.47 6.19 13.48 6.32L13.48 6.32L13.48 6.50L13.45 6.76L13.45 6.76Q13.44 6.87 13.43 6.98L13.43 6.98L13.43 6.98Q13.42 7.09 13.41 7.19L13.41 7.19L13.41 7.19Q13.40 7.45 13.40 7.65L13.40 7.65L13.40 7.65Q13.40 7.84 13.41 7.97L13.41 7.97L13.41 7.97Q13.42 8.13 13.42 8.31L13.42 8.31L13.42 8.31Q13.43 8.49 13.41 8.69L13.41 8.69L13.41 8.69Q13.40 8.99 13.49 9.08L13.49 9.08L13.49 9.08Q13.57 9.17 13.82 9.19L13.82 9.19L13.82 9.19Q13.94 9.21 14.06 9.21L14.06 9.21L14.06 9.21Q14.18 9.22 14.30 9.24L14.30 9.24L14.30 9.24Q14.49 9.26 14.68 9.24L14.68 9.24L14.68 9.24Q14.87 9.22 15.06 9.25L15.06 9.25L15.06 9.25Q15.18 9.26 15.36 9.27L15.36 9.27L15.36 9.27Q15.53 9.28 15.64 9.34ZM17.19 9.29L17.19 9.29L17.19 9.29Q17.19 8.87 17.19 8.46L17.19 8.46L17.19 8.46Q17.19 8.04 17.19 7.62L17.19 7.62L17.19 7.38L17.19 7.38Q17.19 7.20 17.18 7.01L17.18 7.01L17.18 7.01Q17.17 6.82 17.19 6.64L17.19 6.64L17.19 6.64Q17.19 6.43 17.19 6.23L17.19 6.23L17.19 6.23Q17.19 6.03 17.20 5.82L17.20 5.82L17.20 5.82Q17.20 5.58 17.32 5.48L17.32 5.48L17.32 5.48Q17.40 5.41 17.63 5.41L17.63 5.41L17.63 5.41Q17.75 5.41 17.83 5.40L17.83 5.40L17.83 5.40Q17.92 5.40 17.98 5.40L17.98 5.40L17.98 5.40Q18.25 5.39 18.51 5.40L18.51 5.40L18.51 5.40Q18.78 5.41 19.04 5.41L19.04 5.41L19.04 5.41Q19.19 5.40 19.33 5.40L19.33 5.40L19.33 5.40Q19.48 5.39 19.61 5.41L19.61 5.41L19.96 5.43L19.96 5.43Q20.02 5.43 20.07 5.43L20.07 5.43L20.07 5.43Q20.11 5.43 20.15 5.45L20.15 5.45L20.15 5.45Q20.29 5.52 20.28 5.66L20.28 5.66L20.28 5.66Q20.28 5.72 20.23 5.76L20.23 5.76L20.23 5.76Q20.19 5.80 20.14 5.82L20.14 5.82L20.14 5.82Q20.09 5.84 20.04 5.84L20.04 5.84L20.04 5.84Q19.98 5.85 19.94 5.85L19.94 5.85L19.94 5.85Q19.52 5.85 19.11 5.83L19.11 5.83L19.11 5.83Q19.07 5.82 19.01 5.82L19.01 5.82L19.01 5.82Q18.95 5.82 18.87 5.82L18.87 5.82L18.48 5.82L18.48 5.82Q18.32 5.82 18.20 5.83L18.20 5.83L18.20 5.83Q18.07 5.83 17.99 5.83L17.99 5.83L17.99 5.83Q17.88 5.84 17.80 5.86L17.80 5.86L17.80 5.86Q17.73 5.89 17.69 5.94L17.69 5.94L17.69 5.94Q17.64 6.02 17.65 6.15L17.65 6.15L17.65 6.15Q17.65 6.20 17.65 6.24L17.65 6.24L17.65 6.24Q17.65 6.28 17.64 6.32L17.64 6.32L17.64 6.32Q17.63 6.40 17.62 6.49L17.62 6.49L17.62 6.49Q17.62 6.58 17.62 6.69L17.62 6.69L17.62 6.69Q17.62 6.88 17.77 7.01L17.77 7.01L17.77 7.01Q17.90 7.12 18.22 7.10L18.22 7.10L18.22 7.10Q18.36 7.10 18.50 7.08L18.50 7.08L18.50 7.08Q18.64 7.06 18.79 7.07L18.79 7.07L18.79 7.07Q18.85 7.07 18.95 7.07L18.95 7.07L18.95 7.07Q19.04 7.08 19.18 7.07L19.18 7.07L19.18 7.07Q19.46 7.06 19.55 7.16L19.55 7.16L19.55 7.16Q19.58 7.21 19.58 7.32L19.58 7.32L19.58 7.32Q19.56 7.44 19.39 7.47L19.39 7.47L19.39 7.47Q19.23 7.50 19.13 7.50L19.13 7.50L19.13 7.50Q19.01 7.51 18.89 7.50L18.89 7.50L18.89 7.50Q18.77 7.50 18.65 7.51L18.65 7.51L18.65 7.51Q18.50 7.52 18.34 7.51L18.34 7.51L18.34 7.51Q18.18 7.51 18.01 7.49L18.01 7.49L18.01 7.49Q17.99 7.49 17.96 7.49L17.96 7.49L17.96 7.49Q17.94 7.49 17.92 7.49L17.92 7.49L17.91 7.49L17.91 7.49Q17.83 7.47 17.76 7.52L17.76 7.52L17.76 7.52Q17.64 7.59 17.62 7.78L17.62 7.78L17.62 7.78Q17.61 7.96 17.62 8.09L17.62 8.09L17.62 8.09Q17.63 8.16 17.63 8.22L17.63 8.22L17.63 8.22Q17.64 8.29 17.63 8.33L17.63 8.33L17.63 8.33Q17.62 8.44 17.61 8.53L17.61 8.53L17.61 8.53Q17.60 8.63 17.58 8.74L17.58 8.74L17.58 8.74Q17.56 9.00 17.65 9.13L17.65 9.13L17.65 9.13Q17.77 9.28 18.05 9.28L18.05 9.28L18.05 9.28Q18.28 9.28 18.51 9.27L18.51 9.27L18.51 9.27Q18.74 9.26 18.98 9.25L18.98 9.25L18.98 9.25Q19.19 9.24 19.41 9.26L19.41 9.26L19.41 9.26Q19.63 9.28 19.85 9.28L19.85 9.28L19.85 9.28Q19.93 9.28 20.07 9.28L20.07 9.28L20.07 9.28Q20.21 9.28 20.28 9.32L20.28 9.32L20.28 9.32Q20.35 9.36 20.36 9.44L20.36 9.44L20.36 9.44Q20.43 9.69 20.15 9.70L20.15 9.70L20.15 9.70Q19.69 9.72 19.26 9.71L19.26 9.71L19.26 9.71Q18.83 9.71 18.39 9.71L18.39 9.71L18.39 9.71Q18.36 9.71 18.34 9.72L18.34 9.72L18.34 9.72Q18.31 9.72 18.29 9.72L18.29 9.72L18.29 9.72Q18.14 9.72 18.02 9.72L18.02 9.72L18.02 9.72Q17.91 9.72 17.83 9.71L17.83 9.71L17.83 9.71Q17.79 9.71 17.72 9.71L17.72 9.71L17.72 9.71Q17.66 9.71 17.58 9.70L17.58 9.70L17.58 9.70Q17.51 9.69 17.46 9.69L17.46 9.69L17.46 9.69Q17.42 9.68 17.40 9.67L17.40 9.67L17.40 9.67Q17.19 9.61 17.19 9.29ZM24.68 5.46L24.68 5.46L24.68 5.46Q24.97 5.45 24.81 5.76L24.81 5.76L24.81 5.76Q24.78 5.82 24.72 5.91L24.72 5.91L24.72 5.91Q24.66 6.00 24.57 6.12L24.57 6.12L24.57 6.12Q24.37 6.38 24.26 6.60L24.26 6.60L24.26 6.60Q24.16 6.80 24.02 7.01L24.02 7.01L24.02 7.01Q23.89 7.21 23.73 7.42L23.73 7.42L23.73 7.43L23.73 7.43Q23.65 7.55 23.61 7.67L23.61 7.67L23.61 7.67Q23.58 7.78 23.56 7.88L23.56 7.88L23.56 7.88Q23.55 8.00 23.57 8.12L23.57 8.12L23.57 8.12Q23.58 8.24 23.58 8.35L23.58 8.35L23.58 8.35Q23.58 8.52 23.57 8.67L23.57 8.67L23.57 8.67Q23.56 8.83 23.58 8.99L23.58 8.99L23.58 8.99Q23.59 9.05 23.60 9.13L23.60 9.13L23.60 9.13Q23.60 9.21 23.61 9.32L23.61 9.32L23.61 9.32Q23.63 9.54 23.54 9.64L23.54 9.64L23.54 9.64Q23.50 9.69 23.39 9.70L23.39 9.70L23.39 9.70Q23.17 9.72 23.15 9.38L23.15 9.38L23.15 9.38Q23.14 9.07 23.17 8.75L23.17 8.75L23.17 8.75Q23.19 8.43 23.21 8.11L23.21 8.11L23.21 8.11Q23.24 7.85 23.13 7.68L23.13 7.68L23.13 7.68Q23.07 7.61 23.02 7.51L23.02 7.51L23.02 7.51Q22.97 7.42 22.90 7.31L22.90 7.31L22.90 7.31Q22.83 7.19 22.75 7.07L22.75 7.07L22.75 7.07Q22.68 6.95 22.61 6.83L22.61 6.83L22.61 6.83Q22.52 6.70 22.47 6.60L22.47 6.60L22.47 6.60Q22.42 6.50 22.38 6.43L22.38 6.43L22.38 6.43Q22.33 6.34 22.29 6.27L22.29 6.27L22.29 6.27Q22.26 6.20 22.23 6.17L22.23 6.17L22.23 6.17Q22.20 6.13 22.16 6.08L22.16 6.08L22.16 6.08Q22.12 6.02 22.07 5.95L22.07 5.95L22.07 5.95Q21.90 5.74 21.90 5.63L21.90 5.63L21.90 5.63Q21.88 5.57 21.92 5.50L21.92 5.50L21.92 5.50Q22.11 5.28 22.29 5.53L22.29 5.53L22.29 5.53Q22.43 5.74 22.54 5.96L22.54 5.96L22.54 5.96Q22.65 6.19 22.77 6.40L22.77 6.40L22.77 6.40Q22.87 6.56 22.94 6.66L22.94 6.66L22.94 6.66Q23.01 6.77 23.08 6.83L23.08 6.83L23.08 6.83Q23.24 7.01 23.43 6.97L23.43 6.97L23.43 6.97Q23.59 6.94 23.74 6.72L23.74 6.72L23.74 6.72Q23.80 6.64 23.86 6.55L23.86 6.55L23.86 6.55Q23.91 6.46 23.97 6.37L23.97 6.37L23.97 6.37Q24.03 6.30 24.07 6.22L24.07 6.22L24.07 6.22Q24.11 6.13 24.15 6.04L24.15 6.04L24.15 6.04Q24.19 5.95 24.23 5.87L24.23 5.87L24.23 5.87Q24.27 5.78 24.32 5.69L24.32 5.69L24.32 5.69Q24.47 5.48 24.68 5.46ZM31.90 9.06L31.90 9.06L31.90 9.06Q32.22 8.88 32.28 9.19L32.28 9.19L32.28 9.19Q32.31 9.32 32.14 9.44L32.14 9.44L32.14 9.44Q32.07 9.50 32.00 9.53L32.00 9.53L32.00 9.53Q31.94 9.57 31.88 9.59L31.88 9.59L31.88 9.59Q31.73 9.66 31.60 9.69L31.60 9.69L31.60 9.69Q31.47 9.72 31.38 9.73L31.38 9.73L31.38 9.73Q31.20 9.75 31.00 9.75L31.00 9.75L31.00 9.75Q30.80 9.75 30.58 9.71L30.58 9.71L30.58 9.71Q30.14 9.65 29.87 9.41L29.87 9.41L29.87 9.41Q29.61 9.19 29.45 8.89L29.45 8.89L29.45 8.89Q29.29 8.59 29.18 8.29L29.18 8.29L29.17 8.24L29.17 8.24Q29.11 8.05 29.12 7.80L29.12 7.80L29.12 7.80Q29.14 7.56 29.13 7.35L29.13 7.35L29.13 7.35Q29.13 7.18 29.14 7.06L29.14 7.06L29.14 7.06Q29.15 6.93 29.18 6.84L29.18 6.84L29.18 6.84Q29.22 6.67 29.39 6.38L29.39 6.38L29.39 6.38Q29.58 6.05 29.81 5.81L29.81 5.81L29.81 5.81Q30.04 5.57 30.44 5.49L30.44 5.49L30.44 5.49Q30.54 5.48 30.80 5.41L30.80 5.41L30.80 5.41Q30.87 5.39 30.96 5.37L30.96 5.37L30.96 5.37Q31.06 5.36 31.17 5.37L31.17 5.37L31.17 5.37Q31.26 5.37 31.38 5.39L31.38 5.39L31.38 5.39Q31.50 5.41 31.66 5.44L31.66 5.44L31.66 5.44Q31.77 5.48 31.99 5.58L31.99 5.58L31.99 5.58Q32.20 5.67 32.25 5.82L32.25 5.82L32.25 5.82Q32.26 5.88 32.23 5.94L32.23 5.94L32.23 5.94Q32.17 6.04 32.09 6.06L32.09 6.06L32.09 6.06Q32.04 6.08 31.97 6.06L31.97 6.06L31.97 6.06Q31.90 6.05 31.79 6.00L31.79 6.00L31.79 6.00Q31.66 5.93 31.54 5.88L31.54 5.88L31.54 5.88Q31.42 5.83 31.31 5.81L31.31 5.81L31.31 5.81Q31.19 5.78 31.06 5.79L31.06 5.79L31.06 5.79Q30.93 5.80 30.78 5.84L30.78 5.84L30.78 5.84Q30.43 5.95 30.28 6.02L30.28 6.02L30.28 6.02Q30.13 6.10 29.93 6.41L29.93 6.41L29.93 6.41Q29.76 6.65 29.68 6.91L29.68 6.91L29.68 6.91Q29.59 7.18 29.58 7.45L29.58 7.45L29.58 7.45Q29.57 7.73 29.62 8.00L29.62 8.00L29.62 8.00Q29.68 8.28 29.80 8.53L29.80 8.53L29.80 8.54L29.81 8.54L29.81 8.54Q30.11 9.08 30.65 9.22L30.65 9.22L30.65 9.22Q31.05 9.32 31.27 9.26L31.27 9.26L31.27 9.26Q31.33 9.26 31.38 9.24L31.38 9.24L31.38 9.24Q31.44 9.23 31.50 9.21L31.50 9.21L31.50 9.21Q31.73 9.17 31.90 9.06ZM35.26 9.69L35.26 9.69L35.26 9.69Q35.12 9.65 34.98 9.58L34.98 9.58L34.98 9.58Q34.84 9.52 34.71 9.43L34.71 9.43L34.71 9.43Q34.58 9.34 34.46 9.24L34.46 9.24L34.46 9.24Q34.34 9.13 34.26 9.01L34.26 9.01L34.26 9.01Q34.15 8.84 34.10 8.66L34.10 8.66L34.10 8.66Q34.06 8.48 33.97 8.29L33.97 8.29L33.97 8.29Q33.90 8.13 33.89 7.96L33.89 7.96L33.89 7.96Q33.89 7.88 33.88 7.79L33.88 7.79L33.88 7.79Q33.87 7.70 33.87 7.62L33.87 7.62L33.87 7.62Q33.86 7.54 33.85 7.48L33.85 7.48L33.85 7.48Q33.85 7.42 33.85 7.38L33.85 7.38L33.85 7.38Q33.85 7.25 33.87 7.11L33.87 7.11L33.87 7.11Q33.89 6.97 33.92 6.82L33.92 6.82L33.92 6.82Q33.93 6.77 33.96 6.69L33.96 6.69L33.96 6.69Q34.03 6.49 34.14 6.31L34.14 6.31L34.14 6.31Q34.24 6.13 34.38 5.97L34.38 5.97L34.38 5.97Q34.64 5.67 35.12 5.43L35.12 5.43L35.12 5.43Q35.34 5.34 35.58 5.35L35.58 5.35L35.58 5.35Q35.73 5.36 35.88 5.39L35.88 5.39L35.88 5.39Q36.00 5.41 36.10 5.42L36.10 5.42L36.10 5.42Q36.19 5.43 36.26 5.44L36.26 5.44L36.26 5.44Q36.78 5.50 37.19 5.91L37.19 5.91L37.19 5.91Q37.28 6.00 37.35 6.10L37.35 6.10L37.35 6.10Q37.43 6.21 37.51 6.33L37.51 6.33L37.54 6.38L37.54 6.38Q37.55 6.41 37.56 6.42L37.56 6.42L37.56 6.42Q37.56 6.43 37.57 6.45L37.57 6.45L37.57 6.45Q37.69 6.72 37.78 7.13L37.78 7.13L37.78 7.13Q37.87 7.51 37.81 7.83L37.81 7.83L37.81 7.83Q37.77 8.02 37.71 8.19L37.71 8.19L37.71 8.19Q37.65 8.36 37.60 8.53L37.60 8.53L37.60 8.53Q37.33 9.45 36.39 9.69L36.39 9.69L36.34 9.70L36.34 9.70Q36.29 9.71 36.20 9.73L36.20 9.73L36.20 9.73Q36.12 9.74 36.01 9.75L36.01 9.75L36.01 9.75Q35.83 9.78 35.65 9.76L35.65 9.76L35.65 9.76Q35.46 9.75 35.26 9.69ZM35.96 5.78L35.95 5.78L35.95 5.78Q35.58 5.78 35.28 5.87L35.28 5.87L35.28 5.87Q34.99 5.95 34.75 6.19L34.75 6.19L34.75 6.19Q34.42 6.52 34.33 6.92L34.33 6.92L34.33 6.92Q34.24 7.32 34.34 7.81L34.34 7.81L34.40 8.15L34.40 8.15Q34.41 8.24 34.43 8.30L34.43 8.30L34.43 8.30Q34.44 8.36 34.45 8.37L34.45 8.37L34.45 8.37Q34.49 8.52 34.61 8.66L34.61 8.66L34.61 8.66Q34.73 8.80 34.84 8.90L34.84 8.90L34.84 8.90Q34.89 8.96 34.95 9.02L34.95 9.02L34.95 9.02Q35 9.08 35.06 9.13L35.06 9.13L35.06 9.13Q35.16 9.21 35.40 9.29L35.40 9.29L35.41 9.29L35.41 9.29Q35.54 9.32 35.70 9.31L35.70 9.31L35.70 9.31Q35.86 9.30 36.06 9.26L36.06 9.26L36.06 9.26Q36.16 9.23 36.25 9.22L36.25 9.22L36.25 9.22Q36.35 9.21 36.46 9.18L36.46 9.18L36.46 9.18Q36.71 9.12 36.88 8.91L36.88 8.91L36.89 8.91L36.89 8.90L36.89 8.90Q37.00 8.77 37.07 8.57L37.07 8.57L37.07 8.57Q37.14 8.37 37.17 8.32L37.17 8.32L37.17 8.32Q37.52 7.65 37.28 6.87L37.28 6.87L37.27 6.86L37.27 6.86Q37.24 6.79 37.21 6.72L37.21 6.72L37.21 6.72Q37.19 6.65 37.14 6.58L37.14 6.58L37.14 6.58Q36.87 6.18 36.50 6.00L36.50 6.00L36.50 6.00Q36.49 6.00 36.44 5.97L36.44 5.97L36.44 5.97Q36.39 5.94 36.31 5.89L36.31 5.89L36.31 5.89Q36.18 5.81 35.96 5.78L35.96 5.78ZM42.54 5.86L42.54 5.87L42.56 5.89L42.56 5.89Q42.64 5.97 42.70 6.08L42.70 6.08L42.70 6.08Q42.77 6.19 42.82 6.33L42.82 6.33L42.82 6.33Q42.86 6.43 42.91 6.51L42.91 6.51L42.91 6.51Q42.96 6.60 43.00 6.69L43.00 6.69L43.00 6.69Q43.05 6.84 43.08 6.97L43.08 6.97L43.08 6.97Q43.11 7.09 43.11 7.20L43.11 7.20L43.11 7.20Q43.12 7.31 43.12 7.43L43.12 7.43L43.12 7.43Q43.11 7.56 43.09 7.72L43.09 7.72L43.09 7.72Q43.08 7.85 43.08 7.99L43.08 7.99L43.08 7.99Q43.08 8.12 43.05 8.26L43.05 8.26L43.05 8.26Q43.02 8.44 42.95 8.61L42.95 8.61L42.95 8.61Q42.88 8.78 42.78 8.94L42.78 8.94L42.78 8.94Q42.61 9.21 42.30 9.44L42.30 9.44L42.25 9.47L42.25 9.47Q42.17 9.52 42.12 9.53L42.12 9.53L42.12 9.53Q42.04 9.56 41.97 9.59L41.97 9.59L41.97 9.59Q41.90 9.61 41.84 9.63L41.84 9.63L41.84 9.63Q41.49 9.71 41.11 9.70L41.11 9.70L41.11 9.70Q40.74 9.69 40.38 9.69L40.38 9.69L40.38 9.69Q40.25 9.69 40.07 9.70L40.07 9.70L40.07 9.70Q39.88 9.70 39.77 9.63L39.77 9.63L39.77 9.63Q39.68 9.58 39.65 9.45L39.65 9.45L39.65 9.45Q39.64 9.42 39.64 9.33L39.64 9.33L39.64 9.33Q39.64 9.00 39.65 8.68L39.65 8.68L39.65 8.68Q39.66 8.35 39.67 8.03L39.67 8.03L39.67 8.03Q39.68 7.86 39.66 7.69L39.66 7.69L39.66 7.69Q39.64 7.51 39.64 7.34L39.64 7.34L39.64 6.63L39.64 6.06L39.64 6.06Q39.64 5.65 39.74 5.52L39.74 5.52L39.74 5.52Q39.85 5.41 40.08 5.41L40.08 5.41L40.08 5.41Q40.20 5.42 40.29 5.42L40.29 5.42L40.29 5.42Q40.39 5.41 40.47 5.41L40.47 5.41L40.47 5.41Q40.73 5.41 41.00 5.42L41.00 5.42L41.00 5.42Q41.27 5.43 41.56 5.45L41.56 5.45L41.56 5.45Q42.12 5.48 42.54 5.86L42.54 5.86ZM41.65 5.89L41.64 5.89L41.64 5.89L41.64 5.89Q41.54 5.87 41.40 5.87L41.40 5.87L41.40 5.87Q41.26 5.87 41.08 5.89L41.08 5.89L41.08 5.89Q40.74 5.91 40.56 5.88L40.56 5.88L40.56 5.88Q40.26 5.83 40.19 5.88L40.19 5.88L40.19 5.88Q40.09 5.95 40.09 6.17L40.09 6.17L40.09 6.17Q40.09 6.39 40.09 6.60L40.09 6.60L40.09 6.60Q40.10 6.82 40.09 7.02L40.09 7.02L40.09 7.02Q40.05 7.53 40.06 8.04L40.06 8.04L40.06 8.04Q40.07 8.54 40.07 9.04L40.07 9.04L40.07 9.04Q40.07 9.15 40.15 9.22L40.15 9.22L40.15 9.22Q40.24 9.30 40.48 9.26L40.48 9.26L40.48 9.26Q40.48 9.26 40.49 9.26L40.49 9.26L40.49 9.26Q40.50 9.26 40.51 9.26L40.51 9.26L40.51 9.26Q40.65 9.25 40.77 9.25L40.77 9.25L40.77 9.25Q40.89 9.26 41.00 9.26L41.00 9.26L41.00 9.26Q41.41 9.29 41.78 9.22L41.78 9.22L41.78 9.22Q42.16 9.14 42.38 8.72L42.38 8.72L42.38 8.72Q42.47 8.54 42.54 8.37L42.54 8.37L42.54 8.37Q42.62 8.20 42.66 8.02L42.66 8.02L42.66 8.02Q42.70 7.85 42.71 7.66L42.71 7.66L42.71 7.66Q42.72 7.48 42.70 7.26L42.70 7.26L42.70 7.26Q42.66 6.84 42.42 6.42L42.42 6.42L42.42 6.42Q42.31 6.22 42.11 6.09L42.11 6.09L42.11 6.09Q41.92 5.96 41.65 5.89L41.65 5.89ZM45.14 9.70L45.14 9.70L45.14 9.70Q44.92 9.67 44.92 9.44L44.92 9.44L44.92 9.44Q44.91 9.07 44.91 8.72L44.91 8.72L44.91 8.72Q44.91 8.36 44.91 7.99L44.91 7.99L44.91 7.99Q44.91 7.79 44.93 7.58L44.93 7.58L44.93 7.58Q44.95 7.43 44.95 7.30L44.95 7.30L44.95 7.30Q44.95 7.17 44.94 7.06L44.94 7.06L44.94 7.06Q44.93 6.99 44.93 6.90L44.93 6.90L44.93 6.90Q44.92 6.80 44.91 6.67L44.91 6.67L44.91 6.67Q44.91 6.60 44.92 6.51L44.92 6.51L44.92 6.51Q44.92 6.41 44.93 6.28L44.93 6.28L44.93 6.28Q44.93 6.19 44.94 6.11L44.94 6.11L44.94 6.11Q44.94 6.04 44.94 5.99L44.94 5.99L44.94 5.84L44.94 5.83L44.94 5.78L44.94 5.78Q44.92 5.61 44.95 5.54L44.95 5.54L44.95 5.54Q44.97 5.49 45.04 5.44L45.04 5.44L45.04 5.44Q45.30 5.30 45.36 5.61L45.36 5.61L45.36 5.61Q45.42 5.84 45.43 6.07L45.43 6.07L45.43 6.07Q45.44 6.29 45.42 6.51L45.42 6.51L45.42 6.51L45.42 6.51Q45.40 6.73 45.41 6.94L45.41 6.94L45.41 6.94Q45.42 7.15 45.40 7.36L45.40 7.36L45.40 7.36Q45.38 7.55 45.36 7.68L45.36 7.68L45.36 7.68Q45.35 7.82 45.34 7.92L45.34 7.92L45.34 7.92Q45.33 8.05 45.33 8.20L45.33 8.20L45.33 8.20Q45.33 8.35 45.34 8.51L45.34 8.51L45.34 8.51Q45.34 8.54 45.34 8.59L45.34 8.59L45.34 8.59Q45.34 8.63 45.34 8.70L45.34 8.70L45.34 8.70Q45.34 8.80 45.34 8.91L45.34 8.91L45.34 8.91Q45.34 9.02 45.35 9.13L45.35 9.13L45.35 9.13Q45.35 9.20 45.35 9.27L45.35 9.27L45.35 9.27Q45.36 9.33 45.35 9.40L45.35 9.40L45.35 9.40Q45.35 9.54 45.34 9.55L45.34 9.55L45.34 9.55Q45.32 9.68 45.14 9.70ZM47.65 9.56L47.65 9.56L47.65 9.56Q47.62 9.68 47.43 9.70L47.43 9.70L47.43 9.70Q47.24 9.69 47.24 9.49L47.24 9.49L47.24 9.49Q47.24 8.96 47.22 8.41L47.22 8.41L47.22 8.41Q47.20 7.87 47.25 7.33L47.25 7.33L47.25 7.33L47.25 7.33Q47.25 7.17 47.25 7.02L47.25 7.02L47.25 7.02Q47.26 6.87 47.24 6.73L47.24 6.73L47.19 6.21L47.19 6.21Q47.17 5.99 47.26 5.74L47.26 5.74L47.26 5.74Q47.33 5.56 47.44 5.52L47.44 5.52L47.44 5.52Q47.54 5.50 47.64 5.62L47.64 5.62L47.64 5.62Q47.74 5.72 47.78 5.80L47.78 5.80L47.78 5.80Q47.87 5.93 47.96 6.03L47.96 6.03L47.96 6.03Q48.06 6.13 48.15 6.22L48.15 6.22L48.15 6.22Q48.22 6.31 48.30 6.37L48.30 6.37L48.30 6.37Q48.38 6.44 48.45 6.52L48.45 6.52L48.45 6.52Q48.52 6.59 48.60 6.70L48.60 6.70L48.60 6.70Q48.69 6.80 48.78 6.95L48.78 6.95L49.08 7.41L49.08 7.41Q49.12 7.46 49.15 7.52L49.15 7.52L49.15 7.52Q49.19 7.58 49.25 7.66L49.25 7.66L49.25 7.67L49.25 7.67Q49.40 7.86 49.55 8.03L49.55 8.03L49.55 8.03Q49.63 8.11 49.70 8.19L49.70 8.19L49.70 8.19Q49.78 8.26 49.86 8.33L49.86 8.33L49.86 8.33Q49.94 8.42 50.04 8.39L50.04 8.39L50.04 8.39Q50.20 8.35 50.19 8.07L50.19 8.07L50.19 8.07Q50.19 8.00 50.18 7.93L50.18 7.93L50.18 7.93Q50.17 7.85 50.17 7.78L50.17 7.78L50.17 7.78Q50.16 7.72 50.16 7.67L50.16 7.67L50.16 7.67Q50.15 7.62 50.15 7.56L50.15 7.56L50.15 7.56Q50.15 7.53 50.15 7.50L50.15 7.50L50.15 7.50Q50.14 7.46 50.14 7.42L50.14 7.42L50.14 7.42Q50.17 6.82 50.10 6.30L50.10 6.30L50.10 6.30Q50.09 6.27 50.09 6.19L50.09 6.19L50.09 6.19Q50.09 6.11 50.11 5.99L50.11 5.99L50.11 5.99Q50.11 5.84 50.15 5.67L50.15 5.67L50.15 5.67Q50.17 5.42 50.37 5.42L50.37 5.42L50.37 5.42Q50.59 5.42 50.59 5.68L50.59 5.68L50.59 5.68Q50.59 5.89 50.60 6.11L50.60 6.11L50.60 6.11Q50.61 6.32 50.61 6.54L50.61 6.54L50.61 6.54Q50.62 6.85 50.60 7.16L50.60 7.16L50.60 7.16Q50.58 7.48 50.59 7.79L50.59 7.79L50.59 7.79Q50.61 8.00 50.60 8.21L50.60 8.21L50.60 8.21Q50.60 8.42 50.59 8.62L50.59 8.62L50.59 8.62Q50.59 8.74 50.60 8.85L50.60 8.85L50.60 8.85Q50.60 8.96 50.60 9.06L50.60 9.06L50.60 9.34L50.60 9.34Q50.59 9.38 50.59 9.42L50.59 9.42L50.59 9.42Q50.59 9.46 50.59 9.50L50.59 9.50L50.59 9.50Q50.58 9.50 50.58 9.51L50.58 9.51L50.58 9.51Q50.58 9.52 50.57 9.52L50.57 9.52L50.57 9.52Q50.50 9.62 50.34 9.62L50.34 9.62L50.34 9.62Q50.16 9.63 50.06 9.50L50.06 9.50L50.06 9.50Q49.96 9.37 49.87 9.22L49.87 9.22L49.87 9.22Q49.79 9.07 49.68 8.93L49.68 8.93L49.68 8.93Q49.56 8.76 49.41 8.58L49.41 8.58L49.41 8.58Q49.27 8.39 49.09 8.18L49.09 8.18L49.09 8.18Q49.02 8.10 48.90 7.90L48.90 7.90L48.66 7.52L48.66 7.52Q48.57 7.38 48.48 7.24L48.48 7.24L48.48 7.24Q48.39 7.10 48.30 6.97L48.30 6.97L48.30 6.97Q48.25 6.92 48.21 6.87L48.21 6.87L48.21 6.87Q48.16 6.81 48.10 6.77L48.10 6.77L48.10 6.77Q48.05 6.73 47.98 6.71L47.98 6.71L47.98 6.71Q47.91 6.69 47.84 6.71L47.84 6.71L47.84 6.71Q47.66 6.76 47.67 7.08L47.67 7.08L47.67 7.08Q47.68 7.31 47.68 7.52L47.68 7.52L47.68 7.52Q47.69 7.72 47.70 7.90L47.70 7.90L47.70 7.90Q47.71 8.05 47.70 8.19L47.70 8.19L47.70 8.19Q47.68 8.33 47.68 8.47L47.68 8.47L47.68 9.00L47.68 9.00Q47.68 9.17 47.67 9.31L47.67 9.31L47.67 9.31Q47.66 9.45 47.65 9.56ZM56.10 9.26L56.10 9.26L56.10 9.26Q55.59 9.71 54.88 9.75L54.88 9.75L54.88 9.75Q54.19 9.78 53.57 9.53L53.57 9.53L53.57 9.52L53.55 9.52L53.55 9.52Q53.45 9.49 53.26 9.33L53.26 9.33L53.26 9.33Q53.07 9.17 53.01 9.08L53.01 9.08L53.01 9.08Q52.91 8.95 52.83 8.78L52.83 8.78L52.83 8.78Q52.75 8.61 52.67 8.45L52.67 8.45L52.67 8.45Q52.52 8.16 52.51 7.95L52.51 7.95L52.51 7.95Q52.50 7.85 52.50 7.71L52.50 7.71L52.50 7.71Q52.51 7.58 52.52 7.41L52.52 7.41L52.52 7.41Q52.58 6.66 52.99 6.02L52.99 6.02L52.99 6.02Q53.03 5.97 53.12 5.89L53.12 5.89L53.12 5.89Q53.22 5.81 53.37 5.73L53.37 5.73L53.37 5.73Q53.68 5.56 53.90 5.49L53.90 5.49L53.90 5.49Q54.04 5.44 54.22 5.42L54.22 5.42L54.22 5.42Q54.63 5.37 55.06 5.42L55.06 5.42L55.06 5.42Q55.49 5.48 55.86 5.69L55.86 5.69L55.86 5.69Q55.92 5.72 55.98 5.77L55.98 5.77L55.98 5.77Q56.05 5.82 56.14 5.89L56.14 5.89L56.14 5.89Q56.31 6.02 56.33 6.15L56.33 6.15L56.33 6.15Q56.33 6.21 56.29 6.27L56.29 6.27L56.29 6.27Q56.21 6.36 56.14 6.36L56.14 6.36L56.14 6.36Q56.06 6.36 55.97 6.30L55.97 6.30L55.97 6.30Q55.87 6.23 55.82 6.19L55.82 6.19L55.82 6.19Q55.70 6.12 55.63 6.07L55.63 6.07L55.63 6.07Q55.56 6.02 55.54 6.01L55.54 6.01L55.54 6.01Q55.19 5.82 54.69 5.82L54.69 5.82L54.69 5.82Q54.58 5.82 54.44 5.83L54.44 5.83L54.44 5.83Q54.30 5.84 54.15 5.87L54.15 5.87L54.13 5.87L54.12 5.88L54.12 5.88Q53.25 6.13 52.99 7.06L52.99 7.06L52.99 7.06Q52.90 7.40 52.95 7.70L52.95 7.70L52.95 7.70Q53.01 8.00 53.09 8.31L53.09 8.31L53.09 8.31Q53.22 8.79 53.52 9.00L53.52 9.00L53.52 9.00Q53.82 9.21 54.28 9.30L54.28 9.30L54.28 9.30L54.28 9.30Q54.41 9.32 54.51 9.32L54.51 9.32L54.51 9.32Q54.62 9.32 54.72 9.30L54.72 9.30L54.72 9.30Q54.82 9.28 54.93 9.26L54.93 9.26L54.93 9.26Q55.04 9.24 55.16 9.23L55.16 9.23L55.16 9.23Q55.64 9.17 55.85 8.88L55.85 8.88L55.85 8.87L55.85 8.87Q56 8.64 55.97 8.22L55.97 8.22L55.97 8.22Q55.97 8.00 55.82 7.87L55.82 7.87L55.82 7.87Q55.63 7.70 55.30 7.71L55.30 7.71L54.76 7.73L54.76 7.73Q54.67 7.74 54.60 7.74L54.60 7.74L54.60 7.74Q54.53 7.75 54.48 7.75L54.48 7.75L54.48 7.75Q54.22 7.71 54.25 7.51L54.25 7.51L54.25 7.51Q54.27 7.38 54.44 7.33L54.44 7.33L54.44 7.33Q54.75 7.31 55.05 7.33L55.05 7.33L55.05 7.33Q55.34 7.35 55.66 7.33L55.66 7.33L55.95 7.31L55.95 7.31Q56.15 7.29 56.25 7.38L56.25 7.38L56.25 7.38Q56.36 7.46 56.36 7.66L56.36 7.66L56.36 7.66Q56.38 7.87 56.38 7.98L56.38 7.98L56.38 7.98Q56.38 8.16 56.39 8.36L56.39 8.36L56.39 8.36Q56.40 8.57 56.36 8.74L56.36 8.74L56.36 8.74Q56.31 9.00 56.10 9.26Z"></path></g><!----><g data-v-423bf9ae="" id="1fb89b9d-e528-4281-981b-054b8cba46de" transform="matrix(1.0004718356662325,0,0,1.0004718356662325,-4.965371929440877,-4.044834128281295)" stroke="none" fill="white"><path d="M39.444 93.602c-.086 0-.176-.011-.264-.033C15.13 87.604.419 63.184 6.386 39.135c2.889-11.65 10.143-21.477 20.424-27.671s22.359-8.015 34.01-5.125c24.049 5.966 38.76 30.385 32.795 54.435-3.92 15.8-16.123 28.274-31.848 32.555a1.094 1.094 0 0 1-1.344-.769 1.098 1.098 0 0 1 .77-1.346c14.957-4.072 26.564-15.938 30.295-30.97 5.676-22.875-8.32-46.104-31.195-51.778-11.08-2.75-22.57-1.019-32.352 4.874-9.779 5.892-16.678 15.24-19.428 26.322-5.676 22.875 8.32 46.104 31.195 51.779a1.097 1.097 0 1 1-.264 2.161zm8.801-.356a1.754 1.754 0 1 0 3.507 0 1.754 1.754 0 0 0-3.507 0zM37.999 58.184a112.887 112.887 0 0 1-.631 3.199 107.418 107.418 0 0 0-.629 3.216 18.864 18.864 0 0 0-.293 3.337c0 1.252.197 2.409.586 3.476a8.118 8.118 0 0 0 1.691 2.786c.738.79 1.648 1.405 2.725 1.846 1.076.44 2.291.661 3.645.661h1.693v-1.292c0-.224-.088-.4-.262-.522-.176-.123-.346-.186-.51-.186H45c-.883 0-1.688-.153-2.416-.461s-1.352-.749-1.875-1.323a6.191 6.191 0 0 1-1.232-2.093c-.299-.821-.447-1.732-.447-2.739 0-1.146.092-2.277.277-3.383.184-1.109.389-2.206.615-3.292.225-1.086.43-2.169.615-3.246.186-1.079.277-2.16.277-3.247 0-.758-.129-1.45-.385-2.076a5.935 5.935 0 0 0-1.016-1.662 5.76 5.76 0 0 0-3.154-1.861 6.33 6.33 0 0 0 1.709-.693 5.982 5.982 0 0 0 1.445-1.185c.42-.471.76-1.024 1.016-1.661a5.56 5.56 0 0 0 .385-2.093c0-1.087-.092-2.168-.277-3.245s-.391-2.156-.615-3.233a75.643 75.643 0 0 1-.615-3.276 20.588 20.588 0 0 1-.277-3.416c0-1.006.148-1.918.447-2.739.297-.818.709-1.517 1.232-2.091a5.263 5.263 0 0 1 1.875-1.324c.729-.308 1.533-.461 2.416-.461h1.014c.164 0 .334-.063.51-.185a.604.604 0 0 0 .262-.523v-1.293h-1.693c-1.354 0-2.568.221-3.645.661-1.076.443-1.986 1.057-2.725 1.849-.738.788-1.303 1.718-1.691 2.784s-.586 2.226-.586 3.476c0 1.149.1 2.261.293 3.337.193 1.08.404 2.151.629 3.218.227 1.066.436 2.133.631 3.198.197 1.068.293 2.166.293 3.292 0 .679-.113 1.3-.338 1.863a4.245 4.245 0 0 1-2.49 2.446 5.5 5.5 0 0 1-1.971.338v1.875c.719 0 1.373.113 1.971.341a4.241 4.241 0 0 1 1.521.969c.42.42.742.911.969 1.475a5 5 0 0 1 .338 1.863c0 1.128-.096 2.226-.293 3.295zm24.076-5.158a4.326 4.326 0 0 1 .971-1.474 4.222 4.222 0 0 1 1.508-.969c.584-.228 1.234-.341 1.951-.341v-1.875c-.717 0-1.367-.112-1.951-.338a4.263 4.263 0 0 1-1.508-.969c-.422-.42-.746-.914-.971-1.477s-.338-1.185-.338-1.864c0-1.126.098-2.223.291-3.292.195-1.064.404-2.131.631-3.198.225-1.066.436-2.138.629-3.217.195-1.077.295-2.188.295-3.338 0-1.25-.195-2.409-.586-3.476a8.021 8.021 0 0 0-1.691-2.784c-.738-.791-1.646-1.404-2.723-1.848-1.078-.44-2.291-.661-3.646-.661h-1.693v1.292c0 .225.084.4.248.523s.338.185.521.185h1.016c.883 0 1.688.153 2.416.461a5.283 5.283 0 0 1 1.875 1.325c.525.573.936 1.272 1.232 2.091.297.821.447 1.732.447 2.739 0 1.17-.092 2.306-.279 3.416a75.93 75.93 0 0 1-.615 3.276 87.476 87.476 0 0 0-.613 3.233 19.224 19.224 0 0 0-.279 3.245c0 .758.125 1.457.373 2.093.244.636.578 1.189.998 1.66.42.473.902.866 1.445 1.185a6.415 6.415 0 0 0 1.709.693 5.778 5.778 0 0 0-3.154 1.86 5.677 5.677 0 0 0-.998 1.662c-.25.626-.373 1.319-.373 2.077a19.4 19.4 0 0 0 .279 3.248c.184 1.076.389 2.158.613 3.245.229 1.086.432 2.184.615 3.293a20.17 20.17 0 0 1 .279 3.382c0 1.007-.15 1.918-.447 2.739-.297.822-.709 1.517-1.232 2.094a5.316 5.316 0 0 1-1.875 1.323c-.729.307-1.533.461-2.416.461h-1.016a.855.855 0 0 0-.521.185.615.615 0 0 0-.248.523v1.292h1.693c1.354 0 2.568-.221 3.646-.661 1.076-.441 1.984-1.058 2.723-1.847a8.075 8.075 0 0 0 1.691-2.786c.391-1.066.586-2.224.586-3.475 0-1.15-.1-2.262-.295-3.338a107.353 107.353 0 0 0-.629-3.215 120.483 120.483 0 0 1-.631-3.2 18.474 18.474 0 0 1-.291-3.292c0-.679.114-1.299.338-1.866z"></path></g><!----></svg>